<svg width="140" height="42" viewBox="0 0 140 42" fill="none" xmlns="http://www.w3.org/2000/svg">
<g clip-path="url(#clip0_178_2468)">
<path d="M54.965 22.5316C54.6967 23.98 54.4261 25.4284 54.1578 26.8768C53.3484 31.2509 52.5369 35.6271 51.7319 40.0034C51.6725 40.324 51.5405 40.4611 51.1908 40.4567C49.7986 40.4368 48.4064 40.4412 47.0164 40.4545C46.6953 40.4567 46.5655 40.3373 46.5083 40.0299C45.6286 35.2401 44.7444 30.4504 43.8581 25.6628C43.6645 24.6213 43.4688 23.5819 43.273 22.5404C43.207 22.5426 43.1411 22.5426 43.0751 22.5448C43.0751 28.4867 43.0751 34.4308 43.0751 40.4103C41.309 40.4103 39.7056 40.4103 38.0165 40.4103C38.1594 33.7541 38.3024 27.1267 38.4476 20.4463C38.6675 20.4286 38.8412 20.3998 39.015 20.3998C41.3596 20.3976 43.7041 20.4087 46.0465 20.3888C46.4643 20.3843 46.6183 20.5259 46.6821 20.9261C47.4475 25.7734 48.2261 30.6206 49.0046 35.4657C49.0178 35.5453 49.0596 35.6183 49.2004 35.689C50.0208 30.6074 50.8411 25.5257 51.6637 20.433C54.3843 20.433 57.05 20.433 59.7905 20.433C59.94 27.0958 60.0874 33.7254 60.2369 40.4014C58.5632 40.4014 56.9466 40.4014 55.1739 40.4014C55.1739 34.4286 55.1739 28.4845 55.1739 22.5404C55.1014 22.536 55.0332 22.5338 54.965 22.5316Z" fill="black"/>
<path d="M115.622 20.4284C117.285 20.4284 118.87 20.4284 120.496 20.4284C120.496 27.0182 120.496 33.5792 120.496 40.1955C120.304 40.2066 120.109 40.2287 119.913 40.2287C117.936 40.2309 115.956 40.2177 113.979 40.2398C113.552 40.2442 113.387 40.1027 113.266 39.6958C111.755 34.665 110.222 29.6386 108.692 24.6122C108.619 24.3734 108.533 24.1412 108.355 23.9223C108.355 24.568 108.346 25.2159 108.357 25.8616C108.388 27.7678 108.426 29.6762 108.465 31.5824C108.516 34.1497 108.573 36.7171 108.623 39.2823C108.628 39.5034 108.65 39.7289 108.61 39.9412C108.59 40.0474 108.445 40.2088 108.355 40.211C106.84 40.2287 105.324 40.2221 103.776 40.2221C103.776 33.5991 103.776 27.0381 103.776 20.4306C103.967 20.4195 104.148 20.3974 104.326 20.3974C106.413 20.3952 108.502 20.4085 110.59 20.3863C111.01 20.3819 111.19 20.508 111.309 20.9193C112.725 25.8262 114.159 30.7266 115.591 35.6291C115.635 35.7795 115.69 35.9276 115.738 36.078C115.787 36.0714 115.835 36.0648 115.884 36.0581C115.796 30.8681 115.71 25.6759 115.622 20.4284Z" fill="black"/>
<path d="M98.1345 20.3978C98.1345 20.6676 98.1345 20.8313 98.1345 20.9949C98.1345 25.84 98.1433 30.685 98.1301 35.53C98.1235 38.2832 96.7269 40.05 94.0547 40.7112C93.5246 40.8417 92.9792 40.9412 92.4359 40.9854C90.7468 41.1225 89.0687 41.0672 87.4543 40.4768C85.4397 39.7404 84.2102 38.1217 84.1926 35.9701C84.1508 30.8862 84.1706 25.8024 84.1662 20.7185C84.1662 20.6455 84.1838 20.5747 84.1992 20.4399C84.3884 20.4244 84.5797 20.3978 84.7733 20.3978C86.0357 20.3934 87.3004 20.4177 88.5628 20.3846C89.0467 20.3713 89.183 20.515 89.1808 21.0037C89.1632 25.7382 89.1698 30.4727 89.1742 35.2094C89.1742 35.519 89.1764 35.8396 89.2534 36.136C89.4909 37.0514 90.3157 37.5424 91.389 37.4451C92.3523 37.3566 92.9968 36.7463 93.0935 35.8153C93.1177 35.5787 93.1199 35.3399 93.1199 35.101C93.1221 30.4218 93.1287 25.7404 93.1089 21.0612C93.1067 20.5305 93.2475 20.3669 93.7819 20.3846C95.007 20.4222 96.2343 20.3978 97.4615 20.3978C97.6639 20.3978 97.8618 20.3978 98.1345 20.3978Z" fill="black"/>
<path d="M139.974 26.7066C138.291 26.7066 136.67 26.7066 134.955 26.7066C134.955 26.271 134.966 25.8376 134.952 25.4064C134.917 24.21 134.231 23.5024 133.043 23.4228C131.84 23.3432 131.02 23.9867 130.842 25.1565C130.809 25.3732 130.774 25.5921 130.774 25.811C130.769 28.8936 130.778 31.9763 130.767 35.0589C130.76 37.1176 132.355 37.4869 133.679 37.1464C134.431 36.954 134.937 36.4233 134.97 35.6183C135.014 34.4706 134.981 33.3208 134.981 32.1266C134.334 32.1266 133.701 32.1266 133.019 32.1266C133.019 31.1581 133.019 30.2337 133.019 29.2585C135.315 29.2585 137.625 29.2585 139.963 29.2585C139.976 29.4222 139.998 29.5659 139.998 29.7074C139.993 31.5052 140.007 33.3031 139.978 35.1009C139.93 38.084 138.562 39.8022 135.667 40.5142C133.749 40.9853 131.818 40.9631 129.911 40.4568C127.307 39.7668 125.911 38.0597 125.856 35.3353C125.788 32.0713 125.777 28.803 125.858 25.539C125.937 22.3459 127.708 20.4817 130.886 20.0284C132.713 19.7674 134.532 19.7741 136.309 20.3468C138.641 21.0965 139.91 22.8102 139.971 25.2626C139.985 25.7159 139.974 26.1737 139.974 26.7066Z" fill="black"/>
<path d="M0.00452142 33.9332C1.79263 33.9332 3.52355 33.9332 5.32705 33.9332C5.32705 34.5015 5.32485 35.0477 5.32705 35.5939C5.33364 36.6377 5.72294 37.2613 6.53671 37.531C7.44506 37.8318 8.48097 37.6084 8.96924 37.0047C9.48829 36.3635 9.57847 35.1118 9.04842 34.4241C8.67672 33.9398 8.20605 33.4954 7.69359 33.1659C6.60269 32.4649 5.42822 31.8921 4.33732 31.1911C3.35639 30.5609 2.32048 29.9461 1.5155 29.1213C-1.24693 26.2842 -0.00867475 21.4347 3.76328 20.2561C6.03085 19.5462 8.34901 19.5595 10.6276 20.2472C12.8006 20.9018 13.8871 22.4165 13.9333 24.6942C13.9421 25.1674 13.9355 25.6407 13.9355 26.1515C12.2859 26.1515 10.6848 26.1515 9.00003 26.1515C9.00003 25.7977 9.00883 25.4549 8.99783 25.1144C8.95164 23.6217 7.85415 22.8168 6.41574 23.2192C5.18629 23.562 4.75081 25.2869 5.70094 26.2797C6.16062 26.7618 6.74345 27.1444 7.31969 27.4893C8.7493 28.3407 10.2207 29.1191 11.6437 29.9837C12.1694 30.3022 12.629 30.7467 13.0689 31.1801C13.9135 32.0115 14.3775 33.0398 14.3731 34.2317C14.3687 35.1826 14.3819 36.1512 14.206 37.0755C13.8343 39.037 12.5103 40.2001 10.6672 40.7508C8.31382 41.454 5.93408 41.4451 3.59613 40.6778C1.32636 39.9326 0.0880983 38.2144 0.00672081 35.8128C-0.0130737 35.2091 0.00452142 34.6054 0.00452142 33.9332Z" fill="black"/>
<path d="M30.2944 20.4484C31.515 27.0846 32.7379 33.7208 33.9651 40.3947C33.7584 40.4168 33.6198 40.4455 33.4791 40.4455C32.0341 40.4477 30.5869 40.4367 29.1419 40.4544C28.757 40.4588 28.6206 40.346 28.5612 39.9391C27.8223 34.811 27.0569 29.6873 26.2981 24.5615C26.1837 23.7875 26.0759 23.0135 25.8318 22.2351C25.6778 23.2258 25.5195 24.2143 25.3721 25.205C24.8377 28.752 24.3054 32.3012 23.7732 35.8504C23.5686 37.2081 23.3619 38.5659 23.1661 39.9259C23.1244 40.2178 23.0958 40.4566 22.6999 40.4522C21.1251 40.4367 19.5525 40.4455 17.9778 40.4411C17.9096 40.4411 17.8392 40.4101 17.7271 40.3836C18.024 38.7538 18.3121 37.1396 18.6112 35.5253C19.513 30.6493 20.4235 25.7733 21.3209 20.8951C21.378 20.5921 21.433 20.3909 21.8113 20.3931C24.5386 20.4041 27.2658 20.3997 29.993 20.4019C30.0832 20.4019 30.1712 20.4285 30.2944 20.4484Z" fill="black"/>
<path d="M74.0712 26.1515C74.0712 25.7844 74.0865 25.4018 74.069 25.0215C74.025 24.064 73.5631 23.478 72.7009 23.2701C71.819 23.0556 70.9656 23.363 70.5851 24.0308C70.1364 24.8158 70.2046 25.8087 70.8996 26.3969C71.5902 26.9829 72.3798 27.465 73.1584 27.936C74.2537 28.5972 75.393 29.1876 76.4883 29.8466C76.9392 30.1186 77.3438 30.4746 77.7463 30.8196C78.7185 31.6555 79.3387 32.7103 79.3915 33.9995C79.4311 34.9814 79.4135 35.9875 79.2507 36.9539C78.9362 38.8092 77.7309 39.9834 75.9978 40.5561C73.5103 41.3766 70.992 41.3766 68.5155 40.4876C66.4063 39.7313 65.212 37.9777 65.1768 35.7288C65.168 35.1251 65.1746 34.5214 65.1746 33.8735C66.9253 33.8735 68.6365 33.8735 70.4246 33.8735C70.4246 34.4307 70.4312 34.9747 70.4224 35.5165C70.4136 36.2595 70.5983 36.9273 71.2933 37.29C72.0653 37.6947 72.8923 37.7168 73.6599 37.2834C74.566 36.7703 74.8255 35.1914 74.0866 34.3091C73.6027 33.7319 72.9803 33.2388 72.3402 32.8341C71.0888 32.0425 69.7757 31.3503 68.5023 30.5941C68.08 30.342 67.6907 30.0302 67.3014 29.7272C65.3946 28.2434 64.9811 26.251 65.4429 24.0065C65.8872 21.8504 67.3586 20.6983 69.4018 20.2162C71.5023 19.7209 73.6137 19.7098 75.6899 20.3445C77.7419 20.9703 78.8064 22.3502 78.9472 24.4819C78.978 24.9397 78.978 25.4018 78.9384 25.8574C78.9274 25.9923 78.7295 26.22 78.6151 26.2222C77.1701 26.2443 75.7229 26.2311 74.2757 26.2244C74.2251 26.2244 74.1745 26.1891 74.0712 26.1515Z" fill="black"/>
</g>
<path d="M5.05273 11.1273C4.34 11.1273 3.68667 11.0042 3.09273 10.7582C2.50727 10.5036 2.00667 10.1642 1.59091 9.74C1.17515 9.30727 0.852727 8.80242 0.623636 8.22545C0.394545 7.64 0.28 7.01636 0.28 6.35455C0.28 5.65879 0.40303 5.02242 0.649091 4.44545C0.895152 3.86 1.2303 3.35515 1.65455 2.93091C2.08727 2.50667 2.59212 2.17576 3.16909 1.93818C3.75455 1.70061 4.38242 1.58182 5.05273 1.58182C5.48545 1.58182 5.90121 1.63697 6.3 1.74727C6.70727 1.85758 7.08485 2.01455 7.43273 2.21818C7.78909 2.41333 8.10727 2.65515 8.38727 2.94364C8.67576 3.22364 8.92182 3.53758 9.12545 3.88545L7.61091 4.85273C7.33939 4.36909 6.99576 3.98727 6.58 3.70727C6.16424 3.42727 5.65515 3.28727 5.05273 3.28727C4.61152 3.28727 4.20424 3.36788 3.83091 3.52909C3.45758 3.68182 3.13515 3.89818 2.86364 4.17818C2.59212 4.4497 2.38 4.77212 2.22727 5.14545C2.07455 5.51879 1.99818 5.92182 1.99818 6.35455C1.99818 6.77879 2.07455 7.17758 2.22727 7.55091C2.38 7.91576 2.58788 8.23818 2.85091 8.51818C3.12242 8.7897 3.44061 9.00606 3.80545 9.16727C4.17879 9.32 4.58182 9.39636 5.01455 9.39636C5.65939 9.39636 6.20242 9.23515 6.64364 8.91273C7.09333 8.58182 7.44121 8.16182 7.68727 7.65273L9.26545 8.48C9.06182 8.8703 8.81152 9.23091 8.51455 9.56182C8.22606 9.88424 7.89939 10.1642 7.53455 10.4018C7.17818 10.6309 6.78788 10.8091 6.36364 10.9364C5.94788 11.0636 5.51091 11.1273 5.05273 11.1273ZM9.89267 1.58182H11.6109V4.44545C11.8654 4.12303 12.1793 3.86848 12.5527 3.68182C12.9345 3.49515 13.363 3.40182 13.8381 3.40182C14.763 3.40182 15.4842 3.68182 16.0018 4.24182C16.5278 4.80182 16.7909 5.58242 16.7909 6.58364V11H15.0345V6.77455C15.0345 6.18909 14.8945 5.73091 14.6145 5.4C14.3345 5.06061 13.9145 4.89091 13.3545 4.89091C13.1169 4.89091 12.8921 4.93758 12.6799 5.03091C12.4678 5.11576 12.2812 5.24303 12.1199 5.41273C11.9672 5.58242 11.8442 5.79455 11.7509 6.04909C11.666 6.30364 11.6236 6.59212 11.6236 6.91455V11H9.89267V1.58182ZM24.4799 11H22.7745V10.1473C22.5369 10.4612 22.2399 10.7073 21.8836 10.8855C21.5272 11.0636 21.1114 11.1527 20.6363 11.1527C19.7539 11.1527 19.0539 10.8727 18.5363 10.3127C18.0272 9.75273 17.7726 8.97212 17.7726 7.97091V3.55455H19.5163V7.79273C19.5163 8.3697 19.6436 8.82788 19.8981 9.16727C20.1611 9.49818 20.5642 9.66364 21.1072 9.66364C21.5823 9.66364 21.9769 9.4897 22.2908 9.14182C22.6048 8.79394 22.7617 8.29333 22.7617 7.64V3.55455H24.4799V11ZM28.1132 10.6309L25.0586 3.55455H26.8913L28.9659 8.56909L30.9259 3.55455H32.7332L28.2913 14.4364H26.5477L28.1132 10.6309ZM36.4032 11.1527C35.8177 11.1527 35.2832 11.0552 34.7995 10.86C34.3159 10.6564 33.9002 10.3806 33.5523 10.0327C33.2129 9.68485 32.9456 9.27758 32.7505 8.81091C32.5638 8.33576 32.4705 7.83091 32.4705 7.29636C32.4705 6.75333 32.568 6.24424 32.7632 5.76909C32.9668 5.29394 33.2426 4.88242 33.5905 4.53455C33.9383 4.18667 34.3456 3.91091 34.8123 3.70727C35.2874 3.50364 35.7965 3.40182 36.3395 3.40182C36.8911 3.40182 37.4002 3.49939 37.8668 3.69455C38.342 3.88121 38.7492 4.14848 39.0886 4.49636C39.428 4.83576 39.6911 5.23879 39.8777 5.70545C40.0729 6.17212 40.1705 6.68121 40.1705 7.23273V7.88182H34.1123C34.2311 8.40788 34.4898 8.83212 34.8886 9.15455C35.2874 9.47697 35.7923 9.63818 36.4032 9.63818C36.8868 9.63818 37.3068 9.51939 37.6632 9.28182C38.0195 9.04424 38.2868 8.72606 38.465 8.32727L39.8777 9.14182C39.5553 9.74424 39.1014 10.2321 38.5159 10.6055C37.9389 10.9703 37.2347 11.1527 36.4032 11.1527ZM36.3395 4.91636C35.822 4.91636 35.3723 5.05636 34.9905 5.33636C34.6171 5.61636 34.3541 5.98545 34.2014 6.44364H38.4268C38.2995 5.94303 38.0535 5.56545 37.6886 5.31091C37.3238 5.04788 36.8741 4.91636 36.3395 4.91636ZM35.8686 0.703637H36.9377L38.4523 2.86727H37.1541L36.4032 1.73455L35.6523 2.86727H34.3541L35.8686 0.703637ZM40.9403 3.55455H42.6457V4.47091C42.8918 4.14849 43.2015 3.8897 43.5748 3.69455C43.9566 3.49939 44.3893 3.40182 44.873 3.40182C45.7978 3.40182 46.519 3.68182 47.0366 4.24182C47.5627 4.80182 47.8257 5.58242 47.8257 6.58364V11H46.0821V6.76182C46.0821 6.18485 45.9421 5.73091 45.6621 5.4C45.3821 5.06061 44.9621 4.89091 44.4021 4.89091C43.91 4.89091 43.4942 5.06485 43.1548 5.41273C42.8239 5.76061 42.6584 6.26121 42.6584 6.91455V11H40.9403V3.55455ZM51.6726 3.55455H52.9454V2.42182L54.6763 1.23818V3.55455H56.1908V5.09455H54.6763V7.88182C54.6763 8.20424 54.6932 8.46727 54.7272 8.67091C54.7611 8.86606 54.829 9.01879 54.9308 9.12909C55.0411 9.23091 55.1938 9.29879 55.389 9.33273C55.5926 9.36667 55.8599 9.38364 56.1908 9.38364V11H55.949C55.372 11 54.8884 10.9491 54.4981 10.8473C54.1163 10.7455 53.8108 10.5758 53.5817 10.3382C53.3526 10.0921 53.1872 9.77394 53.0854 9.38364C52.992 8.98485 52.9454 8.48848 52.9454 7.89455V5.09455H51.6726V3.55455ZM57.0233 3.55455H58.7288V4.66182C59.0767 3.92364 59.713 3.55455 60.6379 3.55455C60.9094 3.55455 61.1512 3.58424 61.3633 3.64364C61.584 3.70303 61.7791 3.77939 61.9488 3.87273L61.2997 5.50182C61.1724 5.41697 61.0282 5.34909 60.867 5.29818C60.7143 5.23879 60.5149 5.20909 60.2688 5.20909C59.7682 5.20909 59.3864 5.35333 59.1233 5.64182C58.8688 5.92182 58.7415 6.38424 58.7415 7.02909V11H57.0233V3.55455ZM65.6796 11.1527C65.2299 11.1527 64.7844 11.0679 64.3432 10.8982C63.9105 10.72 63.5202 10.4655 63.1723 10.1345C62.8244 9.80364 62.5444 9.40061 62.3323 8.92545C62.1202 8.44182 62.0141 7.89455 62.0141 7.28364C62.0141 6.66424 62.1159 6.11697 62.3196 5.64182C62.5317 5.15818 62.8075 4.75091 63.1469 4.42C63.4947 4.08909 63.8893 3.83879 64.3305 3.66909C64.7802 3.49091 65.2384 3.40182 65.705 3.40182C66.1972 3.40182 66.6511 3.49515 67.0669 3.68182C67.4826 3.86848 67.8262 4.12303 68.0978 4.44545V3.55455H69.8159V11H68.0978V10.0327C67.8262 10.3806 67.4784 10.6564 67.0541 10.86C66.6299 11.0552 66.1717 11.1527 65.6796 11.1527ZM65.9596 9.57455C66.282 9.57455 66.579 9.51515 66.8505 9.39636C67.122 9.27758 67.3553 9.11212 67.5505 8.9C67.7456 8.68788 67.8984 8.44182 68.0087 8.16182C68.1275 7.88182 68.1869 7.58061 68.1869 7.25818C68.1869 6.94424 68.1275 6.64727 68.0087 6.36727C67.8984 6.08727 67.7456 5.84545 67.5505 5.64182C67.3553 5.4297 67.122 5.26424 66.8505 5.14545C66.579 5.02667 66.282 4.96727 65.9596 4.96727C65.6456 4.96727 65.3487 5.02667 65.0687 5.14545C64.7972 5.26424 64.5596 5.42545 64.3559 5.62909C64.1523 5.83273 63.9911 6.07455 63.8723 6.35455C63.762 6.63455 63.7069 6.93576 63.7069 7.25818C63.7069 7.58061 63.762 7.88606 63.8723 8.17455C63.9911 8.45455 64.1523 8.70061 64.3559 8.91273C64.5596 9.11636 64.7972 9.27758 65.0687 9.39636C65.3487 9.51515 65.6456 9.57455 65.9596 9.57455ZM70.8568 3.55455H72.5623V4.47091C72.8083 4.14849 73.118 3.8897 73.4913 3.69455C73.8732 3.49939 74.3059 3.40182 74.7895 3.40182C75.7144 3.40182 76.4356 3.68182 76.9532 4.24182C77.4792 4.80182 77.7423 5.58242 77.7423 6.58364V11H75.9986V6.76182C75.9986 6.18485 75.8586 5.73091 75.5786 5.4C75.2986 5.06061 74.8786 4.89091 74.3186 4.89091C73.8265 4.89091 73.4107 5.06485 73.0713 5.41273C72.7404 5.76061 72.575 6.26121 72.575 6.91455V11H70.8568V3.55455ZM84.5913 10.0073C84.3198 10.3636 83.9719 10.6436 83.5477 10.8473C83.1234 11.0509 82.661 11.1527 82.1604 11.1527C81.7107 11.1527 81.2653 11.0679 80.824 10.8982C80.3913 10.72 80.001 10.4655 79.6531 10.1345C79.3053 9.80364 79.0253 9.40061 78.8131 8.92545C78.601 8.44182 78.495 7.89455 78.495 7.28364C78.495 6.66424 78.5968 6.11697 78.8004 5.64182C79.0125 5.15818 79.2883 4.75091 79.6277 4.42C79.9756 4.08909 80.3701 3.83879 80.8113 3.66909C81.261 3.49091 81.7192 3.40182 82.1859 3.40182C82.678 3.40182 83.1319 3.50364 83.5477 3.70727C83.9634 3.90242 84.3071 4.1697 84.5786 4.50909V3.55455H86.2968V10.8091C86.2968 11.3352 86.2119 11.8273 86.0422 12.2855C85.881 12.7436 85.6392 13.1424 85.3168 13.4818C84.9943 13.8297 84.5913 14.1012 84.1077 14.2964C83.6325 14.5 83.081 14.6018 82.4531 14.6018C81.9695 14.6018 81.5283 14.5467 81.1295 14.4364C80.7392 14.3345 80.3871 14.1861 80.0731 13.9909C79.7592 13.8042 79.4834 13.5794 79.2459 13.3164C79.0083 13.0618 78.8047 12.7776 78.635 12.4636L80.1622 11.5345C80.4337 12.0352 80.7392 12.4085 81.0786 12.6545C81.418 12.9006 81.8847 13.0236 82.4786 13.0236C82.801 13.0236 83.0937 12.9642 83.3568 12.8455C83.6198 12.7267 83.8404 12.5697 84.0186 12.3745C84.2053 12.1794 84.3453 11.9503 84.4386 11.6873C84.5404 11.4242 84.5913 11.1527 84.5913 10.8727V10.0073ZM82.4404 9.57455C82.7628 9.57455 83.0598 9.51515 83.3313 9.39636C83.6028 9.27758 83.8362 9.11212 84.0313 8.9C84.2265 8.68788 84.3792 8.44182 84.4895 8.16182C84.6083 7.88182 84.6677 7.58061 84.6677 7.25818C84.6677 6.94424 84.6083 6.64727 84.4895 6.36727C84.3792 6.08727 84.2265 5.84545 84.0313 5.64182C83.8362 5.4297 83.6028 5.26424 83.3313 5.14545C83.0598 5.02667 82.7628 4.96727 82.4404 4.96727C82.1265 4.96727 81.8295 5.02667 81.5495 5.14545C81.278 5.26424 81.0404 5.42545 80.8368 5.62909C80.6331 5.83273 80.4719 6.07455 80.3531 6.35455C80.2428 6.63455 80.1877 6.93576 80.1877 7.25818C80.1877 7.58061 80.2428 7.88606 80.3531 8.17455C80.4719 8.45455 80.6331 8.70061 80.8368 8.91273C81.0404 9.11636 81.278 9.27758 81.5495 9.39636C81.8295 9.51515 82.1265 9.57455 82.4404 9.57455Z" fill="black"/>
<defs>
<clipPath id="clip0_178_2468">
<rect width="140" height="21.5385" fill="white" transform="translate(0 19.7275)"/>
</clipPath>
</defs>
</svg>
